<svg width="24" height="24" viewBox="0 0 24 24" fill="none" xmlns="http://www.w3.org/2000/svg">
<g id="vuesax/bold/data">
<g id="data">
<path id="Union" fill-rule="evenodd" clip-rule="evenodd" d="M20 6.25C21.2426 6.25 22.25 5.24264 22.25 4C22.25 2.75736 21.2426 1.75 20 1.75C19.0203 1.75 18.1869 2.37611 17.878 3.25L14 3.25C11.58 3.25 10.25 4.58 10.25 7V11.25H6.12197C5.81309 10.3761 4.97966 9.75 4 9.75C2.75736 9.75 1.75 10.7574 1.75 12C1.75 13.2426 2.75736 14.25 4 14.25C4.97966 14.25 5.81309 13.6239 6.12197 12.75H10.25V17C10.25 19.42 11.58 20.75 14 20.75H17.878C18.1869 21.6239 19.0203 22.25 20 22.25C21.2426 22.25 22.25 21.2426 22.25 20C22.25 18.7574 21.2426 17.75 20 17.75C19.0203 17.75 18.1869 18.3761 17.878 19.25H14C12.42 19.25 11.75 18.58 11.75 17V12.75H17.878C18.1869 13.6239 19.0203 14.25 20 14.25C21.2426 14.25 22.25 13.2426 22.25 12C22.25 10.7574 21.2426 9.75 20 9.75C19.0203 9.75 18.1869 10.3761 17.878 11.25H11.75V7C11.75 5.42 12.42 4.75 14 4.75H17.878C18.1869 5.62389 19.0203 6.25 20 6.25Z" fill="#D9D9D9"/>
</g>
</g>
</svg>
