<svg width="24" height="24" viewBox="0 0 24 24" fill="none" xmlns="http://www.w3.org/2000/svg">
<g id="vuesax/bold/dollar-circle">
<g id="dollar-circle">
<path id="Vector" d="M12.75 15.92H13.4C14.05 15.92 14.59 15.34 14.59 14.64C14.59 13.77 14.28 13.6 13.77 13.42L12.76 13.07V15.92H12.75Z" fill="#898989"/>
<path id="Vector_2" d="M11.9699 1.9C6.44994 1.92 1.97994 6.41 1.99994 11.93C2.01994 17.45 6.50994 21.92 12.0299 21.9C17.5499 21.88 22.0199 17.39 21.9999 11.87C21.9799 6.35 17.4899 1.89 11.9699 1.9ZM14.2599 12C15.0399 12.27 16.0899 12.85 16.0899 14.64C16.0899 16.18 14.8799 17.42 13.3999 17.42H12.7499V18C12.7499 18.41 12.4099 18.75 11.9999 18.75C11.5899 18.75 11.2499 18.41 11.2499 18V17.42H10.8899C9.24995 17.42 7.91994 16.04 7.91994 14.34C7.91994 13.93 8.25994 13.59 8.66994 13.59C9.07994 13.59 9.41994 13.93 9.41994 14.34C9.41994 15.21 10.0799 15.92 10.8899 15.92H11.2499V12.54L9.73994 12C8.95994 11.73 7.90994 11.15 7.90994 9.35999C7.90994 7.81999 9.11995 6.58 10.5999 6.58H11.2499V6C11.2499 5.59 11.5899 5.25 11.9999 5.25C12.4099 5.25 12.7499 5.59 12.7499 6V6.58L13.1099 6.58C14.7499 6.58 16.0799 7.96 16.0799 9.66C16.0799 10.07 15.7399 10.41 15.3299 10.41C14.9199 10.41 14.5799 10.07 14.5799 9.66C14.5799 8.79 13.9199 8.08 13.1099 8.08H12.7499V11.46L14.2599 12Z" fill="#898989"/>
<path id="Vector_3" d="M9.42004 9.37C9.42004 10.24 9.73004 10.41 10.24 10.59L11.25 10.94V8.08H10.6C9.95004 8.08 9.42004 8.66 9.42004 9.37Z" fill="#898989"/>
</g>
</g>
</svg>
