<svg width="109" height="108" viewBox="0 0 109 108" fill="none" xmlns="http://www.w3.org/2000/svg">
<circle cx="54.3334" cy="54" r="50" stroke="#272727" stroke-width="8"/>
<path d="M54.3334 4C64.8923 4 75.1803 7.34275 83.7226 13.5492C92.265 19.7556 98.6233 28.507 101.886 38.5492" stroke="#6E56E0" stroke-width="8" stroke-linecap="round"/>
<path d="M26.9689 65V61.73C27.6189 61.24 28.3889 60.635 29.2789 59.915C30.1689 59.185 31.0839 58.4 32.0239 57.56C32.9639 56.71 33.8339 55.86 34.6339 55.01C35.4339 54.16 36.0839 53.35 36.5839 52.58C37.0939 51.81 37.3489 51.15 37.3489 50.6C37.3489 49.99 37.1989 49.435 36.8989 48.935C36.5989 48.425 36.1989 48.02 35.6989 47.72C35.2089 47.42 34.6589 47.27 34.0489 47.27C33.4389 47.27 32.8839 47.42 32.3839 47.72C31.8839 48.02 31.4839 48.425 31.1839 48.935C30.8839 49.435 30.7339 49.99 30.7339 50.6H27.0739C27.0739 49.28 27.3939 48.095 28.0339 47.045C28.6739 45.985 29.5189 45.15 30.5689 44.54C31.6289 43.92 32.7889 43.61 34.0489 43.61C35.3289 43.61 36.4939 43.925 37.5439 44.555C38.5939 45.175 39.4339 46.015 40.0639 47.075C40.6939 48.135 41.0089 49.31 41.0089 50.6C41.0089 51.28 40.8839 51.965 40.6339 52.655C40.3839 53.345 40.0339 54.04 39.5839 54.74C39.1339 55.44 38.6039 56.15 37.9939 56.87C37.3839 57.58 36.7089 58.31 35.9689 59.06C35.2389 59.8 34.4689 60.56 33.6589 61.34H41.1139V65H26.9689ZM51.2209 65.39C50.0009 65.39 48.8909 65.11 47.8909 64.55C46.8909 63.98 46.0259 63.195 45.2959 62.195C44.5759 61.195 44.0209 60.04 43.6309 58.73C43.2409 57.41 43.0459 56 43.0459 54.5C43.0459 53 43.2409 51.595 43.6309 50.285C44.0209 48.965 44.5759 47.805 45.2959 46.805C46.0259 45.805 46.8909 45.025 47.8909 44.465C48.8909 43.895 50.0009 43.61 51.2209 43.61C52.4409 43.61 53.5509 43.895 54.5509 44.465C55.5509 45.025 56.4059 45.805 57.1159 46.805C57.8359 47.805 58.3909 48.965 58.7809 50.285C59.1809 51.595 59.3809 53 59.3809 54.5C59.3809 56 59.1809 57.41 58.7809 58.73C58.3909 60.04 57.8359 61.195 57.1159 62.195C56.4059 63.195 55.5509 63.98 54.5509 64.55C53.5509 65.11 52.4409 65.39 51.2209 65.39ZM51.2209 61.73C52.2909 61.73 53.1759 61.39 53.8759 60.71C54.5759 60.03 55.0959 59.14 55.4359 58.04C55.7759 56.94 55.9459 55.76 55.9459 54.5C55.9459 53.17 55.7659 51.96 55.4059 50.87C55.0459 49.77 54.5159 48.895 53.8159 48.245C53.1159 47.595 52.2509 47.27 51.2209 47.27C50.4109 47.27 49.7059 47.47 49.1059 47.87C48.5159 48.26 48.0259 48.795 47.6359 49.475C47.2459 50.155 46.9559 50.93 46.7659 51.8C46.5759 52.66 46.4809 53.56 46.4809 54.5C46.4809 55.75 46.6509 56.93 46.9909 58.04C47.3409 59.14 47.8659 60.03 48.5659 60.71C49.2759 61.39 50.1609 61.73 51.2209 61.73ZM63.4156 65L75.5356 44H79.7656L67.6456 65H63.4156ZM65.9956 53.105C65.1756 53.105 64.4206 52.91 63.7306 52.52C63.0506 52.12 62.5056 51.58 62.0956 50.9C61.6856 50.22 61.4806 49.46 61.4806 48.62C61.4806 47.76 61.6856 46.99 62.0956 46.31C62.5156 45.63 63.0656 45.095 63.7456 44.705C64.4356 44.315 65.1856 44.12 65.9956 44.12C66.8156 44.12 67.5656 44.32 68.2456 44.72C68.9256 45.12 69.4656 45.66 69.8656 46.34C70.2756 47.02 70.4806 47.78 70.4806 48.62C70.4806 49.47 70.2706 50.235 69.8506 50.915C69.4406 51.595 68.8956 52.13 68.2156 52.52C67.5356 52.91 66.7956 53.105 65.9956 53.105ZM65.9956 50.6C66.5356 50.6 67.0006 50.41 67.3906 50.03C67.7806 49.64 67.9756 49.17 67.9756 48.62C67.9756 48.06 67.7806 47.59 67.3906 47.21C67.0006 46.83 66.5356 46.64 65.9956 46.64C65.4456 46.64 64.9706 46.83 64.5706 47.21C64.1806 47.59 63.9856 48.06 63.9856 48.62C63.9856 49.17 64.1806 49.64 64.5706 50.03C64.9706 50.41 65.4456 50.6 65.9956 50.6ZM77.1856 64.895C76.3556 64.895 75.6006 64.69 74.9206 64.28C74.2406 63.86 73.7006 63.31 73.3006 62.63C72.9006 61.94 72.7006 61.2 72.7006 60.41C72.7006 59.55 72.9056 58.78 73.3156 58.1C73.7356 57.42 74.2856 56.885 74.9656 56.495C75.6556 56.095 76.3956 55.895 77.1856 55.895C78.0456 55.895 78.8156 56.105 79.4956 56.525C80.1756 56.945 80.7106 57.5 81.1006 58.19C81.5006 58.87 81.7006 59.61 81.7006 60.41C81.7006 61.23 81.4956 61.98 81.0856 62.66C80.6856 63.34 80.1406 63.885 79.4506 64.295C78.7706 64.695 78.0156 64.895 77.1856 64.895ZM77.1856 62.39C77.7456 62.39 78.2206 62.195 78.6106 61.805C79.0006 61.415 79.1956 60.95 79.1956 60.41C79.1956 59.85 79.0006 59.375 78.6106 58.985C78.2206 58.595 77.7456 58.4 77.1856 58.4C76.6456 58.4 76.1806 58.595 75.7906 58.985C75.4006 59.375 75.2056 59.85 75.2056 60.41C75.2056 60.95 75.4006 61.415 75.7906 61.805C76.1806 62.195 76.6456 62.39 77.1856 62.39Z" fill="white"/>
</svg>
