<svg width="109" height="108" viewBox="0 0 109 108" fill="none" xmlns="http://www.w3.org/2000/svg">
<circle cx="54.6666" cy="54" r="50" stroke="#272727" stroke-width="8"/>
<path d="M54.6666 4C67.9275 4 80.6451 9.26784 90.022 18.6447C99.3988 28.0215 104.667 40.7392 104.667 54C104.667 67.2608 99.3988 79.9785 90.022 89.3553C80.6452 98.7322 67.9275 104 54.6666 104" stroke="#6E56E0" stroke-width="8" stroke-linecap="round"/>
<path d="M34.3815 65.39C33.0315 65.39 31.8115 65.065 30.7215 64.415C29.6315 63.755 28.7665 62.88 28.1265 61.79C27.4965 60.7 27.1815 59.505 27.1815 58.205H30.8415C30.8415 58.855 31.0015 59.45 31.3215 59.99C31.6415 60.52 32.0665 60.945 32.5965 61.265C33.1365 61.575 33.7315 61.73 34.3815 61.73C35.0315 61.73 35.6215 61.575 36.1515 61.265C36.6815 60.945 37.1065 60.52 37.4265 59.99C37.7465 59.45 37.9065 58.855 37.9065 58.205C37.9065 57.555 37.7665 56.96 37.4865 56.42C37.2165 55.87 36.7715 55.435 36.1515 55.115C35.5415 54.785 34.7315 54.62 33.7215 54.62H28.3215L30.5415 44H40.8615V47.66H33.5115L32.8365 50.96L34.3215 50.975C35.7415 51.025 36.9965 51.37 38.0865 52.01C39.1765 52.65 40.0265 53.51 40.6365 54.59C41.2565 55.66 41.5665 56.865 41.5665 58.205C41.5665 59.185 41.3815 60.11 41.0115 60.98C40.6415 61.85 40.1265 62.615 39.4665 63.275C38.8065 63.935 38.0415 64.455 37.1715 64.835C36.3115 65.205 35.3815 65.39 34.3815 65.39ZM51.5248 65.39C50.3048 65.39 49.1948 65.11 48.1948 64.55C47.1948 63.98 46.3298 63.195 45.5998 62.195C44.8798 61.195 44.3248 60.04 43.9348 58.73C43.5448 57.41 43.3498 56 43.3498 54.5C43.3498 53 43.5448 51.595 43.9348 50.285C44.3248 48.965 44.8798 47.805 45.5998 46.805C46.3298 45.805 47.1948 45.025 48.1948 44.465C49.1948 43.895 50.3048 43.61 51.5248 43.61C52.7448 43.61 53.8548 43.895 54.8548 44.465C55.8548 45.025 56.7098 45.805 57.4198 46.805C58.1398 47.805 58.6948 48.965 59.0848 50.285C59.4848 51.595 59.6848 53 59.6848 54.5C59.6848 56 59.4848 57.41 59.0848 58.73C58.6948 60.04 58.1398 61.195 57.4198 62.195C56.7098 63.195 55.8548 63.98 54.8548 64.55C53.8548 65.11 52.7448 65.39 51.5248 65.39ZM51.5248 61.73C52.5948 61.73 53.4798 61.39 54.1798 60.71C54.8798 60.03 55.3998 59.14 55.7398 58.04C56.0798 56.94 56.2498 55.76 56.2498 54.5C56.2498 53.17 56.0698 51.96 55.7098 50.87C55.3498 49.77 54.8198 48.895 54.1198 48.245C53.4198 47.595 52.5548 47.27 51.5248 47.27C50.7148 47.27 50.0098 47.47 49.4098 47.87C48.8198 48.26 48.3298 48.795 47.9398 49.475C47.5498 50.155 47.2598 50.93 47.0698 51.8C46.8798 52.66 46.7848 53.56 46.7848 54.5C46.7848 55.75 46.9548 56.93 47.2948 58.04C47.6448 59.14 48.1698 60.03 48.8698 60.71C49.5798 61.39 50.4648 61.73 51.5248 61.73ZM63.7196 65L75.8396 44H80.0696L67.9496 65H63.7196ZM66.2996 53.105C65.4796 53.105 64.7246 52.91 64.0346 52.52C63.3546 52.12 62.8096 51.58 62.3996 50.9C61.9896 50.22 61.7846 49.46 61.7846 48.62C61.7846 47.76 61.9896 46.99 62.3996 46.31C62.8196 45.63 63.3696 45.095 64.0496 44.705C64.7396 44.315 65.4896 44.12 66.2996 44.12C67.1196 44.12 67.8696 44.32 68.5496 44.72C69.2296 45.12 69.7696 45.66 70.1696 46.34C70.5796 47.02 70.7846 47.78 70.7846 48.62C70.7846 49.47 70.5746 50.235 70.1546 50.915C69.7446 51.595 69.1996 52.13 68.5196 52.52C67.8396 52.91 67.0996 53.105 66.2996 53.105ZM66.2996 50.6C66.8396 50.6 67.3046 50.41 67.6946 50.03C68.0846 49.64 68.2796 49.17 68.2796 48.62C68.2796 48.06 68.0846 47.59 67.6946 47.21C67.3046 46.83 66.8396 46.64 66.2996 46.64C65.7496 46.64 65.2746 46.83 64.8746 47.21C64.4846 47.59 64.2896 48.06 64.2896 48.62C64.2896 49.17 64.4846 49.64 64.8746 50.03C65.2746 50.41 65.7496 50.6 66.2996 50.6ZM77.4896 64.895C76.6596 64.895 75.9046 64.69 75.2246 64.28C74.5446 63.86 74.0046 63.31 73.6046 62.63C73.2046 61.94 73.0046 61.2 73.0046 60.41C73.0046 59.55 73.2096 58.78 73.6196 58.1C74.0396 57.42 74.5896 56.885 75.2696 56.495C75.9596 56.095 76.6996 55.895 77.4896 55.895C78.3496 55.895 79.1196 56.105 79.7996 56.525C80.4796 56.945 81.0146 57.5 81.4046 58.19C81.8046 58.87 82.0046 59.61 82.0046 60.41C82.0046 61.23 81.7996 61.98 81.3896 62.66C80.9896 63.34 80.4446 63.885 79.7546 64.295C79.0746 64.695 78.3196 64.895 77.4896 64.895ZM77.4896 62.39C78.0496 62.39 78.5246 62.195 78.9146 61.805C79.3046 61.415 79.4996 60.95 79.4996 60.41C79.4996 59.85 79.3046 59.375 78.9146 58.985C78.5246 58.595 78.0496 58.4 77.4896 58.4C76.9496 58.4 76.4846 58.595 76.0946 58.985C75.7046 59.375 75.5096 59.85 75.5096 60.41C75.5096 60.95 75.7046 61.415 76.0946 61.805C76.4846 62.195 76.9496 62.39 77.4896 62.39Z" fill="white"/>
</svg>
