<svg width="108" height="108" viewBox="0 0 108 108" fill="none" xmlns="http://www.w3.org/2000/svg">
<circle cx="54" cy="54" r="50" stroke="#272727" stroke-width="8"/>
<path d="M54 4C61.8905 4 69.669 5.86745 76.6995 9.44967C83.73 13.0319 89.8129 18.2272 94.4508 24.6107C99.0888 30.9943 102.15 38.3849 103.384 46.1783C104.619 53.9716 103.991 61.9465 101.553 69.4508" stroke="#6E56E0" stroke-width="8" stroke-linecap="round"/>
<path d="M33.6132 65.39C32.3432 65.39 31.1982 65.09 30.1782 64.49C29.1582 63.89 28.3482 63.085 27.7482 62.075C27.1482 61.055 26.8482 59.925 26.8482 58.685H30.5082C30.5082 59.245 30.6382 59.755 30.8982 60.215C31.1682 60.675 31.5382 61.045 32.0082 61.325C32.4782 61.595 33.0132 61.73 33.6132 61.73C34.1632 61.73 34.6732 61.595 35.1432 61.325C35.6232 61.045 36.0082 60.675 36.2982 60.215C36.5882 59.755 36.7332 59.245 36.7332 58.685C36.7332 57.955 36.5382 57.35 36.1482 56.87C35.7582 56.38 35.2132 56.015 34.5132 55.775C33.8232 55.535 33.0182 55.415 32.0982 55.415V52.595C33.3382 52.595 34.3182 52.36 35.0382 51.89C35.7682 51.42 36.1332 50.73 36.1332 49.82C36.1332 49.35 36.0132 48.92 35.7732 48.53C35.5332 48.14 35.2132 47.83 34.8132 47.6C34.4232 47.36 33.9932 47.24 33.5232 47.24C33.0432 47.24 32.5782 47.36 32.1282 47.6C31.6782 47.83 31.3082 48.14 31.0182 48.53C30.7382 48.92 30.5982 49.35 30.5982 49.82H26.9382C26.9382 48.96 27.1132 48.155 27.4632 47.405C27.8132 46.645 28.2932 45.98 28.9032 45.41C29.5232 44.84 30.2232 44.395 31.0032 44.075C31.7932 43.745 32.6182 43.58 33.4782 43.58C34.6082 43.58 35.6532 43.86 36.6132 44.42C37.5732 44.98 38.3432 45.73 38.9232 46.67C39.5032 47.61 39.7932 48.66 39.7932 49.82C39.7932 50.63 39.6032 51.425 39.2232 52.205C38.8432 52.985 38.3032 53.535 37.6032 53.855C38.2132 54.075 38.7232 54.445 39.1332 54.965C39.5432 55.475 39.8532 56.06 40.0632 56.72C40.2832 57.37 40.3932 58.025 40.3932 58.685C40.3932 59.915 40.0832 61.04 39.4632 62.06C38.8432 63.07 38.0182 63.88 36.9882 64.49C35.9682 65.09 34.8432 65.39 33.6132 65.39ZM50.3748 65.39C49.1548 65.39 48.0448 65.11 47.0448 64.55C46.0448 63.98 45.1798 63.195 44.4498 62.195C43.7298 61.195 43.1748 60.04 42.7848 58.73C42.3948 57.41 42.1998 56 42.1998 54.5C42.1998 53 42.3948 51.595 42.7848 50.285C43.1748 48.965 43.7298 47.805 44.4498 46.805C45.1798 45.805 46.0448 45.025 47.0448 44.465C48.0448 43.895 49.1548 43.61 50.3748 43.61C51.5948 43.61 52.7048 43.895 53.7048 44.465C54.7048 45.025 55.5598 45.805 56.2698 46.805C56.9898 47.805 57.5448 48.965 57.9348 50.285C58.3348 51.595 58.5348 53 58.5348 54.5C58.5348 56 58.3348 57.41 57.9348 58.73C57.5448 60.04 56.9898 61.195 56.2698 62.195C55.5598 63.195 54.7048 63.98 53.7048 64.55C52.7048 65.11 51.5948 65.39 50.3748 65.39ZM50.3748 61.73C51.4448 61.73 52.3298 61.39 53.0298 60.71C53.7298 60.03 54.2498 59.14 54.5898 58.04C54.9298 56.94 55.0998 55.76 55.0998 54.5C55.0998 53.17 54.9198 51.96 54.5598 50.87C54.1998 49.77 53.6698 48.895 52.9698 48.245C52.2698 47.595 51.4048 47.27 50.3748 47.27C49.5648 47.27 48.8598 47.47 48.2598 47.87C47.6698 48.26 47.1798 48.795 46.7898 49.475C46.3998 50.155 46.1098 50.93 45.9198 51.8C45.7298 52.66 45.6348 53.56 45.6348 54.5C45.6348 55.75 45.8048 56.93 46.1448 58.04C46.4948 59.14 47.0198 60.03 47.7198 60.71C48.4298 61.39 49.3148 61.73 50.3748 61.73ZM62.5696 65L74.6896 44H78.9196L66.7996 65H62.5696ZM65.1496 53.105C64.3296 53.105 63.5746 52.91 62.8846 52.52C62.2046 52.12 61.6596 51.58 61.2496 50.9C60.8396 50.22 60.6346 49.46 60.6346 48.62C60.6346 47.76 60.8396 46.99 61.2496 46.31C61.6696 45.63 62.2196 45.095 62.8996 44.705C63.5896 44.315 64.3396 44.12 65.1496 44.12C65.9696 44.12 66.7196 44.32 67.3996 44.72C68.0796 45.12 68.6196 45.66 69.0196 46.34C69.4296 47.02 69.6346 47.78 69.6346 48.62C69.6346 49.47 69.4246 50.235 69.0046 50.915C68.5946 51.595 68.0496 52.13 67.3696 52.52C66.6896 52.91 65.9496 53.105 65.1496 53.105ZM65.1496 50.6C65.6896 50.6 66.1546 50.41 66.5446 50.03C66.9346 49.64 67.1296 49.17 67.1296 48.62C67.1296 48.06 66.9346 47.59 66.5446 47.21C66.1546 46.83 65.6896 46.64 65.1496 46.64C64.5996 46.64 64.1246 46.83 63.7246 47.21C63.3346 47.59 63.1396 48.06 63.1396 48.62C63.1396 49.17 63.3346 49.64 63.7246 50.03C64.1246 50.41 64.5996 50.6 65.1496 50.6ZM76.3396 64.895C75.5096 64.895 74.7546 64.69 74.0746 64.28C73.3946 63.86 72.8546 63.31 72.4546 62.63C72.0546 61.94 71.8546 61.2 71.8546 60.41C71.8546 59.55 72.0596 58.78 72.4696 58.1C72.8896 57.42 73.4396 56.885 74.1196 56.495C74.8096 56.095 75.5496 55.895 76.3396 55.895C77.1996 55.895 77.9696 56.105 78.6496 56.525C79.3296 56.945 79.8646 57.5 80.2546 58.19C80.6546 58.87 80.8546 59.61 80.8546 60.41C80.8546 61.23 80.6496 61.98 80.2396 62.66C79.8396 63.34 79.2946 63.885 78.6046 64.295C77.9246 64.695 77.1696 64.895 76.3396 64.895ZM76.3396 62.39C76.8996 62.39 77.3746 62.195 77.7646 61.805C78.1546 61.415 78.3496 60.95 78.3496 60.41C78.3496 59.85 78.1546 59.375 77.7646 58.985C77.3746 58.595 76.8996 58.4 76.3396 58.4C75.7996 58.4 75.3346 58.595 74.9446 58.985C74.5546 59.375 74.3596 59.85 74.3596 60.41C74.3596 60.95 74.5546 61.415 74.9446 61.805C75.3346 62.195 75.7996 62.39 76.3396 62.39Z" fill="white"/>
</svg>
